<svg xmlns="http://www.w3.org/2000/svg" width="252.97" height="121.44" viewBox="0 0 252.97 121.44"><g><path fill="#fff" d="M71.32 4.43c-2.2.31-9.13 1.76-9.3 1.8-1.81.4-3.16.14-5.51-1.32-1.53-.96-9.15-5.5-11.52-4.85l-.5.14a1.09 1.09 0 0 0-.54 1.76c.61.58 8.07 6.82 8.26 7.12-1.44.53-2.84 1.1-4.64 1.72-2.12.77-4.47.65-5.22.1S38.5 7.86 35.98 8.6l-.32.09a.63.63 0 0 0-.42.91s2.33 2.9 2.94 3.62a5.97 5.97 0 0 0 4.9 2.07c2.81-.04 8.56-.37 18.27-3.04 5.67-1.56 9.48-2.4 13.12-3.8 1.81-.7 2.76-1.8 2.5-2.73-.35-1.26-2.43-1.73-5.65-1.28Z"></path><path fill="#fff" d="M92.78 97a39.81 39.81 0 0 1-10.05 8.05c-1.9 6.12-5.02 11.32-9.43 14.57 15.48-4.81 26.5-19.51 28.26-36.77A49.82 49.82 0 0 1 92.78 97Z"></path><path fill="#fff" d="M84.1 39.6c7.04 15.34 5.57 32.26-8.78 46.5-9.38 9.33-23 13.28-34.38 12.47-32.1-3.48-56.91-52.5-6.1-83.22C-5.71 30.92-5.96 69.1 9.37 90.27c8.69 11.99 22.72 19.44 35.2 21.46 12.92 2.51 36.73-4.2 46.84-15.92 24.15-28 3.14-55.93-7.31-56.2Z"></path><path fill="#fff" d="M36.37 58.2c-7.66 10.24-11.52 20.98-9.6 33.54a35.89 35.89 0 0 0 9.93 4.2c-2-10.77 3.56-20.45 9.07-26.52A58.24 58.24 0 0 1 71.1 53.43a53.92 53.92 0 0 0-11-11.29c-8.43 2.61-16.73 8.03-23.72 16.06Z"></path><path fill="#fff" d="M50.03 37.02a23.64 23.64 0 0 0-6.5-.93 24.35 24.35 0 0 0-6.3.84s-2.95.83-4.76 1.54c-9.76 8.83-18.3 26.4-11.2 49.22q1.1.98 2.28 1.86c-4.05-26.63 10.37-49.1 26.48-52.53Z"></path><path fill="#fff" d="m82.44 40.36-1.5-3.27c-11.93-8.73-27.84-11.7-44.19-1.92C56.08 30 71.9 47.92 80.04 64.77a46.14 46.14 0 0 1 2.87 7.75c4.74-9.97 4.65-21-.47-32.16Z"></path><path fill="#fff" d="M73.74 116.77a31.82 31.82 0 0 1-21.86-2.73c-.43.02-.87.04-1.28.04a33.7 33.7 0 0 1-6.37-.55 52.25 52.25 0 0 1-6.01-1.36 36.01 36.01 0 0 0 29.74 8.78 23.92 23.92 0 0 0 5.78-4.18Z"></path><g><g fill="#fff"><path d="M121.07 100.41h-3.63v-1.84h9.27v1.84h-3.63v11.84h-2Z"></path><path d="M129.22 102.51h1.9v1.04h.04a3.1 3.1 0 0 1 4.43-.41l-1.38 1.7a1.95 1.95 0 0 0-1.24-.5 1.75 1.75 0 0 0-1.25.5 1.94 1.94 0 0 0-.6 1.54v5.87h-1.9Z"></path><path d="M142.62 111.4h-.04a1.6 1.6 0 0 1-.82.72 3.8 3.8 0 0 1-1.5.25 3.38 3.38 0 0 1-2.44-.87 2.74 2.74 0 0 1-.9-2.1 2.8 2.8 0 0 1 .78-2.04 3.06 3.06 0 0 1 2.29-.85h2.62v-1.03q.02-1.29-1.93-1.25a3.34 3.34 0 0 0-1.12.15 1.38 1.38 0 0 0-.67.6l-1.5-1.17a3.63 3.63 0 0 1 3.2-1.42 4.94 4.94 0 0 1 2.84.7 2.87 2.87 0 0 1 1.08 2.5v6.66h-1.9Zm0-3.28h-2.28q-1.66.04-1.64 1.18a1.05 1.05 0 0 0 .43.84 1.95 1.95 0 0 0 1.36.39 3.24 3.24 0 0 0 1.68-.3q.45-.3.45-1.4Z"></path><path d="M146.89 102.51h2l2.22 6.83h.04l2.2-6.83h2.02l-3.46 9.74h-1.56Z"></path><path d="M159.14 108.12a2.32 2.32 0 0 0 .66 1.79 2.14 2.14 0 0 0 1.6.62 2.8 2.8 0 0 0 2.06-.95l1.38 1.21a4.39 4.39 0 0 1-3.4 1.58 4.78 4.78 0 0 1-1.46-.23 3.49 3.49 0 0 1-.69-.33 3.3 3.3 0 0 1-.66-.44 3.88 3.88 0 0 1-.97-1.52 6.17 6.17 0 0 1-.41-2.44 7 7 0 0 1 .35-2.4 4.22 4.22 0 0 1 .91-1.54 3.4 3.4 0 0 1 1.26-.82 3.96 3.96 0 0 1 1.37-.26 3.86 3.86 0 0 1 2.73 1.1 4.06 4.06 0 0 1 1.16 3.03v1.6Zm4-1.6a2.54 2.54 0 0 0-.6-1.73 2.04 2.04 0 0 0-2.8 0 2.66 2.66 0 0 0-.6 1.72Z"></path><path d="M168.29 98.57h1.9v11.18q0 .67.7.67h.66v1.83h-.85a2.67 2.67 0 0 1-1.7-.53 2.15 2.15 0 0 1-.71-1.82Z"></path><path d="M180.1 108.94a5.7 5.7 0 0 0 3.77 1.36q2.58-.03 2.62-1.9.02-1.53-1.73-1.84l-1.75-.26a4.28 4.28 0 0 1-2.6-1.3 3.7 3.7 0 0 1-.92-2.54 3.81 3.81 0 0 1 1.16-2.9 4.42 4.42 0 0 1 3.17-1.1 7.3 7.3 0 0 1 4.29 1.41l-1.12 1.7a5.96 5.96 0 0 0-3.28-1.05 2.45 2.45 0 0 0-1.55.48 1.8 1.8 0 0 0-.66 1.48 1.54 1.54 0 0 0 .44 1.07 2.53 2.53 0 0 0 1.43.68l1.5.22a4.09 4.09 0 0 1 2.75 1.38 3.97 3.97 0 0 1 .88 2.55q-.1 3.93-4.65 3.98a7.39 7.39 0 0 1-5.06-1.86Z"></path><path d="M190.4 102.51h2l2.24 6.83h.03l2.23-6.83h2.02l-4.06 11.76a2.79 2.79 0 0 1-1.08 1.52 3.11 3.11 0 0 1-1.58.4h-.63v-1.84h.55a1.25 1.25 0 0 0 .7-.2 1.13 1.13 0 0 0 .44-.64l.52-1.64Z"></path><path d="M201.52 109.28a3.89 3.89 0 0 0 3 1.25 2.48 2.48 0 0 0 1.33-.33 1.03 1.03 0 0 0 .52-.92.82.82 0 0 0-.3-.73 1.58 1.58 0 0 0-.85-.24l-1.68-.15a3.14 3.14 0 0 1-1.94-.82 2.55 2.55 0 0 1-.78-1.95 2.67 2.67 0 0 1 1.03-2.25 3.99 3.99 0 0 1 2.49-.75 7.27 7.27 0 0 1 1.17.09 5.7 5.7 0 0 1 .97.26 5.52 5.52 0 0 1 1.57.98l-1.18 1.42a5.82 5.82 0 0 0-1.15-.67 3.75 3.75 0 0 0-1.39-.24 1.85 1.85 0 0 0-1.25.33 1.08 1.08 0 0 0-.37.84.67.67 0 0 0 .28.58 1.6 1.6 0 0 0 .97.34l1.56.13a2.9 2.9 0 0 1 2.14.92 3.17 3.17 0 0 1 .6 2 2.56 2.56 0 0 1-1.11 2.19 4.74 4.74 0 0 1-2.8.8 5.9 5.9 0 0 1-4.15-1.74Z"></path><path d="M211.55 99.55h1.89v2.97h1.38v1.5h-1.38v5.68c-.01.5.21.73.67.72h.7v1.83h-.98a2.2 2.2 0 0 1-1.63-.64 2.3 2.3 0 0 1-.65-1.76v-5.84h-.96v-1.5h.96Z"></path><path d="M219.16 108.12a2.32 2.32 0 0 0 .65 1.79 2.14 2.14 0 0 0 1.6.62 2.8 2.8 0 0 0 2.07-.95l1.37 1.21a4.4 4.4 0 0 1-3.4 1.58 4.78 4.78 0 0 1-1.45-.23 3.49 3.49 0 0 1-.7-.33 3.3 3.3 0 0 1-.66-.44 3.88 3.88 0 0 1-.97-1.52 6.17 6.17 0 0 1-.4-2.44 7 7 0 0 1 .35-2.4 4.22 4.22 0 0 1 .9-1.54 3.4 3.4 0 0 1 1.27-.82 3.96 3.96 0 0 1 1.36-.26 3.86 3.86 0 0 1 2.73 1.1 4.06 4.06 0 0 1 1.16 3.03v1.6Zm3.99-1.6a2.54 2.54 0 0 0-.6-1.73 2.04 2.04 0 0 0-2.8 0 2.66 2.66 0 0 0-.59 1.72Z"></path><path d="M228.22 102.51h1.9v1.04h.04a3.15 3.15 0 0 1 2.54-1.16 3.65 3.65 0 0 1 1.64.35 4.91 4.91 0 0 1 1.11.93 3.84 3.84 0 0 1 3.07-1.28 3.34 3.34 0 0 1 2.22.86 3.27 3.27 0 0 1 1.03 2.53v6.47h-1.9v-5.8a2.09 2.09 0 0 0-.55-1.56 1.9 1.9 0 0 0-1.4-.55 1.93 1.93 0 0 0-1.41.55 2.05 2.05 0 0 0-.56 1.56v5.8h-1.9v-5.8a2.1 2.1 0 0 0-.54-1.56 1.93 1.93 0 0 0-1.41-.55 1.9 1.9 0 0 0-1.4.55 2.03 2.03 0 0 0-.58 1.56v5.8h-1.9Z"></path><path d="M245.9 109.28a3.9 3.9 0 0 0 3 1.25 2.47 2.47 0 0 0 1.34-.33 1.03 1.03 0 0 0 .52-.92.82.82 0 0 0-.31-.73 1.58 1.58 0 0 0-.85-.24l-1.67-.15a3.14 3.14 0 0 1-1.94-.82 2.54 2.54 0 0 1-.79-1.95 2.67 2.67 0 0 1 1.03-2.25 3.99 3.99 0 0 1 2.5-.75 7.26 7.26 0 0 1 1.17.09 5.71 5.71 0 0 1 .97.26 5.53 5.53 0 0 1 1.57.98l-1.18 1.42a5.82 5.82 0 0 0-1.16-.67 3.75 3.75 0 0 0-1.38-.24 1.84 1.84 0 0 0-1.25.33 1.08 1.08 0 0 0-.37.84.67.67 0 0 0 .28.58 1.6 1.6 0 0 0 .96.34l1.57.13a2.9 2.9 0 0 1 2.13.92 3.17 3.17 0 0 1 .61 2 2.56 2.56 0 0 1-1.12 2.19 4.73 4.73 0 0 1-2.79.8 5.9 5.9 0 0 1-4.15-1.74Z"></path></g></g><path fill="#fff" d="M144.71 89.6a27.21 27.21 0 1 1 18.94-46.75l.65.64-8.28 8.28-.63-.59a15.33 15.33 0 1 0-1.25 23.45l.63-.47 8.31 8.32-.74.63a27.21 27.21 0 0 1-17.63 6.49Z"></path><path fill="#fff" d="M208.6 35.27h-35.85v54.26h35.85v-10.5h-23.9V67.47h16.81V57.33h-16.8V45.75h23.89Z"></path><path fill="#fff" d="M229.07 45.75h23.9V35.27h-35.85v54.26h35.85v-10.5h-23.9V67.47h16.81V57.33h-16.8Z"></path></g></svg>
